<?xml version="1.0" standalone="no"?>
<!DOCTYPE svg PUBLIC "-//W3C//DTD SVG 20010904//EN"
 "http://www.w3.org/TR/2001/REC-SVG-20010904/DTD/svg10.dtd">
<svg version="1.0" xmlns="http://www.w3.org/2000/svg"
 width="1139.000000pt" height="878.000000pt" viewBox="0 0 1139.000000 878.000000"
 preserveAspectRatio="xMidYMid meet">

<g transform="translate(0.000000,878.000000) scale(0.100000,-0.100000)"
fill="#000000" stroke="none">
<path d="M1978 6503 c-39 -24 -65 -85 -76 -176 -26 -210 -179 -363 -390 -389
-141 -18 -192 -60 -192 -160 0 -108 56 -153 185 -150 381 10 698 328 707 710
3 89 -14 131 -65 162 -41 25 -131 27 -169 3z"/>
<path d="M582 5248 c10 -45 6 -220 -7 -250 -7 -17 83 -18 1651 -20 l1659 -3
98 -27 c211 -58 389 -160 537 -308 175 -174 279 -367 337 -625 14 -60 17 -191
20 -883 l4 -813 30 25 c40 34 88 46 187 46 l82 0 0 773 c0 836 -2 873 -56
1062 -33 116 -118 294 -199 415 -209 313 -535 533 -923 622 l-97 22 -1666 3
-1667 3 10 -42z"/>
<path d="M5132 1998 c-32 -89 -107 -194 -185 -258 l-66 -55 -1 -491 0 -491
-49 -32 c-58 -37 -102 -90 -134 -158 -18 -39 -22 -66 -22 -143 0 -82 4 -103
26 -151 37 -79 90 -133 167 -171 61 -30 75 -33 162 -33 82 0 103 4 152 27 154
72 238 250 198 417 -18 76 -79 163 -145 207 l-55 37 0 678 c0 730 -1 745 -48
617z"/>
</g>
</svg>
